<svg xmlns="http://www.w3.org/2000/svg" viewBox="0 0 120 132"><defs><linearGradient id="g" x1="0" y1="0" x2="0" y2="1"><stop offset="0" stop-color="#3B82F6"/><stop offset="1" stop-color="#1E40AF"/></linearGradient></defs><path d="M60 6 L108 26 L108 64 C108 94 86 116 60 126 C34 116 12 94 12 64 L12 26 Z" fill="url(#g)"/><path d="M60 6 L108 26 L108 64 C108 94 86 116 60 126 C34 116 12 94 12 64 L12 26 Z" fill="none" stroke="#22D3EE" stroke-width="2" opacity="0.55"/><g transform="translate(26.00,80.00) scale(0.05400,-0.05400)" fill="#0A1628"><path transform="translate(0.00,0)" d="M77 0V698H416Q502 698 551.0 649.0Q600 600 600 519Q600 466 582.5 433.5Q565 401 535.5 386.0Q506 371 470 369V363Q495 363 522.0 354.0Q549 345 573.0 326.0Q597 307 612.0 275.5Q627 244 627 199Q627 144 603.5 99.0Q580 54 539.5 27.0Q499 0 447 0ZM229 288V128H404Q424 128 438.5 135.5Q453 143 461.0 157.0Q469 171 469 191V225Q469 245 461.0 259.0Q453 273 438.5 280.5Q424 288 404 288ZM229 570V412H380Q400 412 414.5 419.5Q429 427 436.5 441.5Q444 456 444 476V506Q444 526 436.5 540.5Q429 555 414.5 562.5Q400 570 380 570Z"/><path transform="translate(647.00,0)" d="M409 0H239L14 698H168L272 363L327 144H330L383 363L487 698H636Z"/></g></svg>